<svg width="246" height="150" viewBox="0 0 246 150" fill="none" xmlns="http://www.w3.org/2000/svg">
<path d="M200.183 39.0391C208.822 37.1211 227.537 30.4684 233.287 19.2003C232.004 27.5232 230.466 46.6276 234.576 56.4602" stroke="#01001A" stroke-width="3" stroke-linecap="round" stroke-linejoin="round"/>
<path d="M1.9311 82.1378C3.13844 84.6631 5.1823 86.4311 7.4546 88.3645C17.3479 96.7826 28.9335 103.771 41.6873 108.837C68.4634 119.471 99.6212 123.028 127.472 110.757C143.393 103.743 160.237 90.1094 161.083 74.0245C161.563 64.8896 155.657 57.6279 147.748 52.1069C139.272 46.1904 128.659 41.8756 117.582 40.6648C109.015 39.7285 94.4077 40.9426 94.5388 51.0387C94.6113 56.6387 98.4573 61.5136 102.787 65.3276C111.806 73.2726 124.114 77.3476 136.905 79.1419C159.137 82.2609 182.049 77.7212 199.662 64.8331C206.356 59.9364 219.46 46.1255 223.65 37.9317" stroke="#01001A" stroke-width="3" stroke-linecap="round"/>
</svg>
