<svg width="246" height="149" viewBox="0 0 246 149" fill="none" xmlns="http://www.w3.org/2000/svg">
<path d="M45.7391 38.2881C37.0998 36.3702 18.3847 29.7174 12.6353 18.4493C13.9178 26.7722 15.4561 45.8766 11.3459 55.7092" stroke="#01001A" stroke-width="3" stroke-linecap="round" stroke-linejoin="round"/>
<path d="M243.991 81.3868C242.783 83.9122 240.74 85.6801 238.467 87.6135C228.574 96.0316 216.988 103.02 204.235 108.086C177.459 118.72 146.301 122.277 118.45 110.006C102.529 102.992 85.6844 89.3585 84.8392 73.2735C84.3586 64.1387 90.2651 56.8769 98.1741 51.356C106.65 45.4394 117.263 41.1246 128.34 39.9138C136.907 38.9775 151.514 40.1916 151.383 50.2877C151.311 55.8877 147.465 60.7627 143.135 64.5766C134.116 72.5216 121.808 76.5966 109.017 78.3909C86.7846 81.51 63.8724 76.9702 46.2596 64.0821C39.5664 59.1854 26.462 45.3745 22.2719 37.1807" stroke="#01001A" stroke-width="3" stroke-linecap="round"/>
</svg>
