<svg width="87" height="87" viewBox="0 0 87 87" fill="none" xmlns="http://www.w3.org/2000/svg">
<circle cx="44.5" cy="44.5" r="42" fill="#01001A" stroke="#01001A"/>
<circle cx="42.5" cy="42.5" r="42" fill="#F5F6FA" stroke="#01001A"/>
<path d="M63.8329 52.8365H62.1661V46.1692C62.1661 45.7271 61.9904 45.3031 61.6779 44.9905C61.3653 44.6779 60.9413 44.5023 60.4992 44.5023H58.8324C58.3903 44.5023 57.9663 44.6779 57.6537 44.9905C57.3412 45.3031 57.1655 45.7271 57.1655 46.1692V52.8365H56.3321V41.1687C56.3321 40.7266 56.1565 40.3026 55.8439 39.99C55.5313 39.6774 55.1074 39.5018 54.6653 39.5018H52.9984C52.5564 39.5018 52.1324 39.6774 51.8198 39.99C51.5072 40.3026 51.3316 40.7266 51.3316 41.1687V52.8365H50.4982V43.6689C50.4982 43.2268 50.3226 42.8029 50.01 42.4903C49.6974 42.1777 49.2734 42.0021 48.8313 42.0021H47.1645C46.7224 42.0021 46.2985 42.1777 45.9859 42.4903C45.6733 42.8029 45.4977 43.2268 45.4977 43.6689V52.8365C45.2767 52.8363 45.0648 52.7484 44.9086 52.5922C44.7523 52.4359 44.6645 52.2241 44.6642 52.0031V38.6684C44.6642 38.4474 44.5764 38.2354 44.4201 38.0791C44.2638 37.9228 44.0519 37.835 43.8308 37.835C43.6098 37.835 43.3978 37.9228 43.2415 38.0791C43.0852 38.2354 42.9974 38.4474 42.9974 38.6684V52.0031C42.9981 52.666 43.2618 53.3015 43.7305 53.7703C44.1992 54.239 44.8348 54.5027 45.4977 54.5034H63.8329C64.0539 54.5034 64.2659 54.4156 64.4222 54.2593C64.5785 54.103 64.6663 53.891 64.6663 53.67C64.6663 53.4489 64.5785 53.2369 64.4222 53.0806C64.2659 52.9243 64.0539 52.8365 63.8329 52.8365ZM47.1645 52.8365L47.1633 43.6689H48.8313V52.8365H47.1645ZM52.9984 52.8365L52.9972 41.1687H54.6653V52.8365H52.9984ZM58.8324 52.8365L58.8312 46.1692H60.4992V52.8365H58.8324ZM54.6653 27.8339C54.6653 27.7245 54.6868 27.6161 54.7287 27.515C54.7705 27.4138 54.8319 27.322 54.9093 27.2446C54.9867 27.1672 55.0786 27.1058 55.1797 27.0639C55.2809 27.022 55.3892 27.0005 55.4987 27.0005H62.9995C63.2205 27.0005 63.4325 27.0883 63.5888 27.2446C63.7451 27.4009 63.8329 27.6129 63.8329 27.8339C63.8329 28.055 63.7451 28.267 63.5888 28.4233C63.4325 28.5796 63.2205 28.6674 62.9995 28.6674H55.4987C55.3892 28.6674 55.2809 28.6458 55.1797 28.604C55.0786 28.5621 54.9867 28.5007 54.9093 28.4233C54.8319 28.3459 54.7705 28.254 54.7287 28.1529C54.6868 28.0518 54.6653 27.9434 54.6653 27.8339ZM52.165 27.8339C52.165 27.6691 52.2139 27.508 52.3055 27.3709C52.3971 27.2339 52.5272 27.127 52.6795 27.064C52.8318 27.0009 52.9994 26.9844 53.161 27.0165C53.3227 27.0487 53.4712 27.1281 53.5878 27.2446C53.7043 27.3612 53.7837 27.5097 53.8158 27.6713C53.848 27.833 53.8315 28.0006 53.7684 28.1529C53.7053 28.3052 53.5985 28.4353 53.4615 28.5269C53.3244 28.6185 53.1633 28.6674 52.9984 28.6674C52.7774 28.6674 52.5654 28.5796 52.4091 28.4233C52.2528 28.267 52.165 28.055 52.165 27.8339ZM54.6653 31.1676C54.6653 31.0582 54.6868 30.9498 54.7287 30.8486C54.7705 30.7475 54.8319 30.6556 54.9093 30.5782C54.9867 30.5008 55.0786 30.4395 55.1797 30.3976C55.2809 30.3557 55.3892 30.3342 55.4987 30.3342H62.9995C63.2205 30.3342 63.4325 30.422 63.5888 30.5783C63.7451 30.7346 63.8329 30.9466 63.8329 31.1676C63.8329 31.3887 63.7451 31.6006 63.5888 31.7569C63.4325 31.9132 63.2205 32.001 62.9995 32.001H55.4987C55.3892 32.0011 55.2809 31.9795 55.1797 31.9377C55.0786 31.8958 54.9867 31.8344 54.9093 31.757C54.8319 31.6796 54.7705 31.5877 54.7287 31.4866C54.6868 31.3855 54.6653 31.2771 54.6653 31.1676ZM54.6653 34.5013C54.6653 34.3918 54.6868 34.2835 54.7287 34.1823C54.7705 34.0812 54.8319 33.9893 54.9093 33.9119C54.9867 33.8345 55.0786 33.7731 55.1797 33.7313C55.2809 33.6894 55.3892 33.6678 55.4987 33.6679H62.9995C63.2205 33.6679 63.4325 33.7557 63.5888 33.912C63.7451 34.0683 63.8329 34.2803 63.8329 34.5013C63.8329 34.7223 63.7451 34.9343 63.5888 35.0906C63.4325 35.2469 63.2205 35.3347 62.9995 35.3347H55.4987C55.3892 35.3347 55.2809 35.3132 55.1797 35.2713C55.0786 35.2295 54.9867 35.1681 54.9093 35.0907C54.8319 35.0133 54.7705 34.9214 54.7287 34.8203C54.6868 34.7191 54.6653 34.6108 54.6653 34.5013ZM52.165 31.1676C52.165 31.0028 52.2139 30.8417 52.3055 30.7046C52.3971 30.5675 52.5272 30.4607 52.6795 30.3976C52.8318 30.3346 52.9994 30.3181 53.161 30.3502C53.3227 30.3824 53.4712 30.4617 53.5878 30.5783C53.7043 30.6949 53.7837 30.8434 53.8158 31.005C53.848 31.1667 53.8315 31.3343 53.7684 31.4866C53.7053 31.6388 53.5985 31.769 53.4615 31.8606C53.3244 31.9522 53.1633 32.001 52.9984 32.001C52.7774 32.001 52.5654 31.9132 52.4091 31.7569C52.2528 31.6006 52.165 31.3887 52.165 31.1676ZM52.165 34.5013C52.165 34.3365 52.2139 34.1753 52.3055 34.0383C52.3971 33.9012 52.5272 33.7944 52.6795 33.7313C52.8318 33.6682 52.9994 33.6517 53.161 33.6839C53.3227 33.716 53.4712 33.7954 53.5878 33.912C53.7043 34.0285 53.7837 34.177 53.8158 34.3387C53.848 34.5004 53.8315 34.6679 53.7684 34.8202C53.7053 34.9725 53.5985 35.1027 53.4615 35.1943C53.3244 35.2858 53.1633 35.3347 52.9984 35.3347C52.7774 35.3347 52.5654 35.2469 52.4091 35.0906C52.2528 34.9343 52.165 34.7223 52.165 34.5013ZM65.4997 22H23.8287C23.1659 22.0007 22.5303 22.2644 22.0616 22.7331C21.5929 23.2018 21.3292 23.8374 21.3285 24.5003V35.3768C20.6351 35.474 20.0002 35.8184 19.5407 36.3467C19.0813 36.875 18.8282 37.5515 18.8282 38.2517C18.8282 38.9518 19.0813 39.6284 19.5407 40.1567C20.0002 40.685 20.6351 41.0294 21.3285 41.1265V45.0365C20.1955 46.1241 19.3128 47.4452 18.7416 48.9081C18.1703 50.371 17.9242 51.9407 18.0203 53.5082C18.1164 55.0758 18.5524 56.6036 19.2981 57.9858C20.0438 59.368 21.0813 60.5713 22.3387 61.5124C23.596 62.4534 25.043 63.1096 26.5793 63.4354C28.1156 63.7613 29.7044 63.7489 31.2355 63.3992C32.7666 63.0496 34.2032 62.3709 35.4458 61.4105C36.6883 60.45 37.707 59.2306 38.4311 57.8371H65.4997C66.1626 57.8363 66.7982 57.5727 67.2669 57.1039C67.7356 56.6352 67.9993 55.9997 68 55.3368V24.5003C67.9993 23.8374 67.7356 23.2018 67.2669 22.7331C66.7982 22.2644 66.1626 22.0007 65.4997 22ZM20.4951 38.2517C20.4951 38.0044 20.5684 37.7627 20.7058 37.5572C20.8431 37.3516 21.0384 37.1913 21.2668 37.0967C21.4952 37.0021 21.7466 36.9773 21.9891 37.0256C22.2316 37.0738 22.4543 37.1929 22.6292 37.3677C22.804 37.5425 22.9231 37.7653 22.9713 38.0078C23.0195 38.2503 22.9948 38.5017 22.9002 38.7301C22.8055 38.9585 22.6453 39.1538 22.4397 39.2911C22.2341 39.4285 21.9924 39.5018 21.7452 39.5018C21.4138 39.5015 21.096 39.3696 20.8616 39.1353C20.6273 38.9009 20.4954 38.5831 20.4951 38.2517ZM27.9958 43.7111V52.3384L20.397 56.4301C19.8298 55.1013 19.585 53.6572 19.6825 52.2157C19.7801 50.7742 20.2172 49.3762 20.9582 48.136C21.6992 46.8957 22.7231 45.8483 23.9462 45.0792C25.1693 44.3102 26.557 43.8414 27.9958 43.7111ZM29.6627 43.7111C31.7952 43.9086 33.7915 44.8456 35.3058 46.36C36.8202 47.8743 37.7572 49.8706 37.9547 52.0031H29.6627V43.7111ZM28.8293 62.0042C27.3159 62.0033 25.8264 61.6277 24.4936 60.9109C23.1608 60.194 22.0263 59.1583 21.1914 57.8961L29.04 53.67H37.9547C37.7447 55.9461 36.693 58.0619 35.0052 59.6034C33.3174 61.1449 31.115 62.001 28.8293 62.0042ZM66.3332 55.3368C66.3329 55.5578 66.2451 55.7696 66.0888 55.9259C65.9326 56.0821 65.7207 56.17 65.4997 56.1702H39.1335C39.825 54.0472 39.8426 51.7623 39.1839 49.6288C38.5253 47.4954 37.2227 45.6181 35.4548 44.2543C33.6868 42.8906 31.5403 42.1073 29.3096 42.0119C27.0788 41.9165 24.8732 42.5136 22.9953 43.7214V40.8761C23.4926 40.6407 23.9131 40.2693 24.2081 39.8048C24.5031 39.3404 24.6605 38.8019 24.6622 38.2517C24.6597 37.8147 24.5579 37.384 24.3644 36.9921L28.5817 33.2433C28.9722 33.4782 29.4123 33.6186 29.8667 33.6531C30.3211 33.6876 30.7773 33.6153 31.1988 33.442L34.8715 36.3417C34.6941 36.7865 34.629 37.2681 34.682 37.744C34.735 38.2199 34.9043 38.6755 35.1752 39.0704C35.446 39.4653 35.8099 39.7874 36.2348 40.0082C36.6597 40.2291 37.1324 40.3419 37.6112 40.3366C38.09 40.3314 38.5602 40.2083 38.9801 39.9782C39.4001 39.7481 39.7569 39.4181 40.019 39.0173C40.2811 38.6166 40.4405 38.1575 40.483 37.6805C40.5255 37.2036 40.4499 36.7235 40.2628 36.2827L45.0805 32.3028C45.6542 32.7008 46.3519 32.8791 47.0461 32.8051C47.7403 32.7311 48.3847 32.4097 48.8616 31.8998C49.3384 31.3898 49.6158 30.7253 49.6431 30.0277C49.6704 29.3301 49.4458 28.6459 49.0103 28.1002C48.5747 27.5546 47.9574 27.1838 47.2711 27.0558C46.5848 26.9278 45.8753 27.051 45.2723 27.4029C44.6694 27.7548 44.2131 28.3119 43.9871 28.9725C43.761 29.633 43.7801 30.3528 44.041 31.0004L39.2032 34.9968C38.7139 34.6708 38.1375 34.5001 37.5496 34.5072C36.9617 34.5143 36.3897 34.6989 35.9084 35.0366L32.5145 32.3572C32.7975 31.9321 32.9638 31.4402 32.9969 30.9307C33.03 30.4212 32.9288 29.9119 32.7033 29.4538C32.4778 28.9957 32.136 28.6048 31.712 28.3203C31.288 28.0358 30.7968 27.8676 30.2874 27.8325C29.778 27.7975 29.2683 27.8968 28.8093 28.1206C28.3504 28.3443 27.9582 28.6847 27.6721 29.1076C27.386 29.5305 27.2159 30.0211 27.1789 30.5304C27.142 31.0396 27.2394 31.5496 27.4614 32.0094L23.241 35.7608C23.1613 35.7127 23.0798 35.6678 22.9953 35.6273V24.5003C22.9955 24.2793 23.0834 24.0674 23.2397 23.9112C23.3959 23.7549 23.6078 23.6671 23.8287 23.6668H65.4997C65.7207 23.6671 65.9326 23.7549 66.0888 23.9112C66.2451 24.0674 66.3329 24.2793 66.3332 24.5003V55.3368ZM30.9634 31.6349C30.7885 31.8097 30.5658 31.9288 30.3233 31.977C30.0808 32.0253 29.8294 32.0005 29.601 31.9059C29.3726 31.8113 29.1773 31.651 29.04 31.4454C28.9026 31.2399 28.8293 30.9982 28.8293 30.7509C28.8293 30.5037 28.9026 30.262 29.04 30.0564C29.1773 29.8508 29.3726 29.6906 29.601 29.5959C29.8294 29.5013 30.0808 29.4766 30.3233 29.5248C30.5658 29.573 30.7885 29.6921 30.9634 29.8669C31.1975 30.1016 31.3289 30.4195 31.3289 30.7509C31.3289 31.0823 31.1975 31.4003 30.9634 31.6349ZM38.4642 38.3023C38.2893 38.4771 38.0666 38.5961 37.8241 38.6444C37.5816 38.6926 37.3302 38.6679 37.1018 38.5732C36.8734 38.4786 36.6781 38.3184 36.5407 38.1128C36.4034 37.9072 36.3301 37.6655 36.3301 37.4183C36.3301 37.171 36.4034 36.9293 36.5407 36.7237C36.6781 36.5182 36.8734 36.3579 37.1018 36.2633C37.3302 36.1687 37.5816 36.1439 37.8241 36.1922C38.0666 36.2404 38.2893 36.3595 38.4642 36.5343C38.6983 36.7689 38.8297 37.0868 38.8297 37.4183C38.8297 37.7497 38.6983 38.0676 38.4642 38.3023ZM45.8638 29.0335C46.0386 28.8587 46.2614 28.7396 46.5039 28.6914C46.7464 28.6431 46.9978 28.6679 47.2262 28.7625C47.4546 28.8571 47.6499 29.0174 47.7872 29.223C47.9246 29.4285 47.9979 29.6702 47.9979 29.9175C47.9979 30.1647 47.9246 30.4064 47.7872 30.612C47.6499 30.8176 47.4546 30.9778 47.2262 31.0725C46.9978 31.1671 46.7464 31.1918 46.5039 31.1436C46.2614 31.0954 46.0386 30.9763 45.8638 30.8015C45.6297 30.5669 45.4982 30.2489 45.4982 29.9175C45.4982 29.586 45.6297 29.2681 45.8638 29.0335Z" fill="#01001A"/>
</svg>
