<svg width="87" height="87" viewBox="0 0 87 87" fill="none" xmlns="http://www.w3.org/2000/svg">
<circle cx="44.5" cy="44.5" r="42" fill="#01001A" stroke="#01001A"/>
<circle cx="42.5" cy="42.5" r="42" fill="#F5F6FA" stroke="#01001A"/>
<path d="M39.7579 22.4836C37.6678 20.3161 34.6487 19.1549 31.4748 19.5419C26.3655 20.1612 22.7271 24.7286 23.1141 29.8379" stroke="black" stroke-width="1.5" stroke-miterlimit="10" stroke-linecap="round" stroke-linejoin="round"/>
<path d="M52.5935 40.2112L62.5023 40.1338C64.9796 40.1338 66.9923 38.121 66.9923 35.5664C66.9923 34.3278 66.4504 33.244 65.6763 32.4699C64.9021 31.6957 63.8958 31.2313 62.7346 31.1539C63.6635 27.7477 61.8056 24.2641 58.4769 23.1803C56.7738 22.6384 55.0707 22.7932 53.5998 23.5674C52.3612 20.8579 49.5744 19 46.4004 19C43.691 19 41.2912 20.3934 39.8203 22.4836" stroke="black" stroke-width="1.5" stroke-miterlimit="10" stroke-linecap="round" stroke-linejoin="round"/>
<path d="M23.1095 29.8378C20.4775 30.4571 18.697 32.9343 19.0841 35.6437C19.3937 38.2758 21.6387 40.2111 24.1933 40.2885L33.4055 40.2111" stroke="black" stroke-width="1.5" stroke-miterlimit="10" stroke-linecap="round" stroke-linejoin="round"/>
<path d="M41.7599 37.5789L39.4375 39.8238" stroke="black" stroke-width="1.5" stroke-miterlimit="10" stroke-linecap="round" stroke-linejoin="round"/>
<path d="M43.0062 46.7142C48.7352 46.7142 53.3795 42.0699 53.3795 36.3409C53.3795 30.6118 48.7352 25.9675 43.0062 25.9675C37.2771 25.9675 32.6328 30.6118 32.6328 36.3409C32.6328 42.0699 37.2771 46.7142 43.0062 46.7142Z" stroke="black" stroke-width="1.5" stroke-miterlimit="10" stroke-linecap="round" stroke-linejoin="round"/>
<path d="M43.0078 25.9675V28.2899" stroke="black" stroke-width="1.5" stroke-miterlimit="10" stroke-linecap="round" stroke-linejoin="round"/>
<path d="M43.0078 44.3918V46.7142" stroke="black" stroke-width="1.5" stroke-miterlimit="10" stroke-linecap="round" stroke-linejoin="round"/>
<path d="M32.6328 36.3408H34.9552" stroke="black" stroke-width="1.5" stroke-miterlimit="10" stroke-linecap="round" stroke-linejoin="round"/>
<path d="M51.0547 36.3408H53.3771" stroke="black" stroke-width="1.5" stroke-miterlimit="10" stroke-linecap="round" stroke-linejoin="round"/>
<path d="M35.6486 28.9866L37.2743 30.6122" stroke="black" stroke-width="1.5" stroke-miterlimit="10" stroke-linecap="round" stroke-linejoin="round"/>
<path d="M48.7422 41.9919L50.3679 43.6176" stroke="black" stroke-width="1.5" stroke-miterlimit="10" stroke-linecap="round" stroke-linejoin="round"/>
<path d="M35.6486 43.6176L37.2743 41.9919" stroke="black" stroke-width="1.5" stroke-miterlimit="10" stroke-linecap="round" stroke-linejoin="round"/>
<path d="M48.7422 30.6122L50.3679 28.9866" stroke="black" stroke-width="1.5" stroke-miterlimit="10" stroke-linecap="round" stroke-linejoin="round"/>
<path d="M43.0078 34.5602V32.3152" stroke="black" stroke-width="1.5" stroke-miterlimit="10" stroke-linecap="round" stroke-linejoin="round"/>
<path d="M44.7954 36.341C44.7954 37.27 44.0212 38.1215 43.0149 38.1215C42.0859 38.1215 41.2344 37.3474 41.2344 36.341C41.2344 35.4121 42.0085 34.5605 43.0149 34.5605C43.9438 34.5605 44.7954 35.3347 44.7954 36.341Z" stroke="black" stroke-width="1.5" stroke-miterlimit="10" stroke-linecap="round" stroke-linejoin="round"/>
<path d="M44.3962 59.7967H41.6093C40.6804 59.7967 39.9062 59.0226 39.9062 58.0936V55.2293C39.9062 54.3004 40.6804 53.5262 41.6093 53.5262H44.3962C45.3252 53.5262 46.0993 54.3004 46.0993 55.2293V58.0162C46.0993 59.0226 45.3252 59.7967 44.3962 59.7967Z" stroke="black" stroke-width="1.5" stroke-miterlimit="10" stroke-linecap="round" stroke-linejoin="round"/>
<path d="M28.1526 40.2111V51.6682C28.1526 53.2939 26.8366 54.6099 25.2109 54.6099" stroke="black" stroke-width="1.5" stroke-miterlimit="10" stroke-linecap="round" stroke-linejoin="round"/>
<path d="M23.49 57.7064H20.7031C19.7741 57.7064 19 56.9322 19 56.0033V53.2164C19 52.2874 19.7741 51.5133 20.7031 51.5133H23.49C24.4189 51.5133 25.193 52.2874 25.193 53.2164V56.0033C25.2705 56.9322 24.4963 57.7064 23.49 57.7064Z" stroke="black" stroke-width="1.5" stroke-miterlimit="10" stroke-linecap="round" stroke-linejoin="round"/>
<path d="M29.5915 66.6863H26.8047C25.8757 66.6863 25.1016 65.9122 25.1016 64.9832V62.1964C25.1016 61.2674 25.8757 60.4933 26.8047 60.4933H29.5915C30.5205 60.4933 31.2946 61.2674 31.2946 62.1964V64.9832C31.2946 65.9122 30.5205 66.6863 29.5915 66.6863Z" stroke="black" stroke-width="1.5" stroke-miterlimit="10" stroke-linecap="round" stroke-linejoin="round"/>
<path d="M35.5731 43.6176V60.6484C35.5731 62.2741 34.257 63.5901 32.6314 63.5901H31.625" stroke="black" stroke-width="1.5" stroke-miterlimit="10" stroke-linecap="round" stroke-linejoin="round"/>
<path d="M57.8516 40.2887V51.7458C57.8516 53.3715 59.1676 54.6875 60.7933 54.6875" stroke="black" stroke-width="1.5" stroke-miterlimit="10" stroke-linecap="round" stroke-linejoin="round"/>
<path d="M62.4975 57.7071H65.2844C66.2133 57.7071 66.9874 56.933 66.9874 56.004V53.2171C66.9874 52.2882 66.2133 51.514 65.2844 51.514H62.4975C61.5685 51.514 60.7944 52.2882 60.7944 53.2171V56.004C60.717 56.933 61.4911 57.7071 62.4975 57.7071Z" stroke="black" stroke-width="1.5" stroke-miterlimit="10" stroke-linecap="round" stroke-linejoin="round"/>
<path d="M56.3672 66.6866H59.154C60.083 66.6866 60.8571 65.9124 60.8571 64.9835V62.1966C60.8571 61.2677 60.083 60.4935 59.154 60.4935H56.3672C55.4382 60.4935 54.6641 61.2677 54.6641 62.1966V64.9835C54.6641 65.9124 55.4382 66.6866 56.3672 66.6866Z" stroke="black" stroke-width="1.5" stroke-miterlimit="10" stroke-linecap="round" stroke-linejoin="round"/>
<path d="M50.4141 43.6177V60.6485C50.4141 62.2742 51.7301 63.5902 53.3558 63.5902H54.3621" stroke="black" stroke-width="1.5" stroke-miterlimit="10" stroke-linecap="round" stroke-linejoin="round"/>
<path d="M43 46.7137V53.5261" stroke="black" stroke-width="1.5" stroke-miterlimit="10" stroke-linecap="round" stroke-linejoin="round"/>
</svg>
