<svg width="87" height="87" viewBox="0 0 87 87" fill="none" xmlns="http://www.w3.org/2000/svg">
<circle cx="44.5002" cy="44.5001" r="42" fill="#01001A" stroke="#01001A"/>
<circle cx="42.5002" cy="42.5001" r="42" fill="#F5F6FA" stroke="#01001A"/>
<path d="M43.0002 36.0658C39.6687 36.0658 36.9582 38.7763 36.9582 42.1078C36.9582 45.4394 39.6687 48.1499 43.0002 48.1499C46.3318 48.1499 49.0423 45.4394 49.0423 42.1078C49.0423 38.7763 46.3318 36.0658 43.0002 36.0658ZM43.0002 46.3365C40.6686 46.3365 38.7716 44.4395 38.7716 42.1078C38.7716 39.7761 40.6686 37.8792 43.0002 37.8792C45.3319 37.8792 47.2289 39.7761 47.2289 42.1078C47.2289 44.4395 45.3319 46.3365 43.0002 46.3365ZM55.9333 39.7619L52.7863 39.1149C52.595 38.4883 52.344 37.8825 52.0362 37.3044L53.8042 34.6216C54.0409 34.2622 53.9925 33.7858 53.6882 33.4815L51.6266 31.4199C51.3222 31.1155 50.8458 31.0672 50.4865 31.3039L47.8037 33.0719C47.2255 32.7641 46.6198 32.5131 45.9932 32.3219L45.3462 29.1748C45.2595 28.7532 44.8885 28.4507 44.4581 28.4507H41.5424C41.112 28.4507 40.741 28.7532 40.6543 29.1748L40.0073 32.3219C39.3807 32.5131 38.7749 32.7641 38.1968 33.0719L35.514 31.3039C35.1547 31.0671 34.6782 31.1156 34.3739 31.4199L32.3123 33.4815C32.008 33.7858 31.9595 34.2622 32.1963 34.6216L33.9643 37.3044C33.6564 37.8826 33.4054 38.4883 33.2142 39.1148L30.0672 39.7618C29.6456 39.8485 29.3431 40.2195 29.3431 40.6499V43.5656C29.3431 43.9959 29.6456 44.367 30.0672 44.4537L33.2142 45.1006C33.4054 45.7273 33.6564 46.3331 33.9642 46.9112L32.1962 49.594C31.9595 49.9534 32.0079 50.4298 32.3122 50.7341L34.3738 52.7957C34.6782 53.1 35.1546 53.1484 35.5138 52.9116L38.1967 51.1437C38.7749 51.4515 39.3806 51.7024 40.0071 51.8936L40.654 55.0408C40.7407 55.4624 41.1118 55.7649 41.5422 55.7649H44.4579C44.8882 55.7649 45.2593 55.4624 45.346 55.0408L45.9929 51.8936C46.6196 51.7024 47.2254 51.4515 47.8035 51.1437L50.4863 52.9116C50.8456 53.1484 51.3221 53.1 51.6264 52.7957L53.688 50.7341C53.9923 50.4298 54.0408 49.9534 53.8039 49.594L52.036 46.9112C52.3438 46.3331 52.5947 45.7273 52.786 45.1007L55.9331 44.4538C56.3547 44.3671 56.6572 43.996 56.6572 43.5657V40.65C56.6574 40.2196 56.3549 39.8486 55.9333 39.7619ZM54.844 42.8264L51.8767 43.4364C51.5334 43.507 51.2615 43.7691 51.1785 44.1096C50.9748 44.9447 50.645 45.7405 50.1985 46.475C50.0164 46.7745 50.0233 47.1523 50.2161 47.4449L51.8831 49.9745L50.8669 50.9907L48.3373 49.3237C48.0447 49.1308 47.6669 49.1239 47.3673 49.3061C46.6331 49.7526 45.8373 50.0823 45.002 50.286C44.6615 50.369 44.3993 50.641 44.3288 50.9843L43.7188 53.9516H42.2817L41.6717 50.9843C41.6011 50.641 41.3389 50.369 40.9985 50.286C40.1634 50.0824 39.3675 49.7527 38.6331 49.3061C38.3337 49.1241 37.9559 49.1308 37.6632 49.3237L35.1336 50.9907L34.1174 49.9745L35.7844 47.4449C35.9773 47.1522 35.9841 46.7744 35.802 46.4748C35.3555 45.7406 35.0258 44.9449 34.822 44.1096C34.7391 43.7691 34.4671 43.5069 34.1238 43.4364L31.1565 42.8264V41.3893L34.1238 40.7793C34.4671 40.7087 34.7391 40.4465 34.822 40.1061C35.0257 39.2711 35.3554 38.4753 35.802 37.7407C35.984 37.4412 35.9772 37.0635 35.7843 36.7708L34.1173 34.2412L35.1335 33.225L37.6631 34.892C37.9558 35.0849 38.3335 35.0918 38.6331 34.9095C39.3673 34.4631 40.1631 34.1334 40.9984 33.9296C41.3388 33.8467 41.6011 33.5747 41.6716 33.2314L42.2816 30.2641H43.7187L44.3287 33.2314C44.3993 33.5747 44.6614 33.8467 45.0019 33.9296C45.8371 34.1333 46.6329 34.463 47.3673 34.9095C47.6668 35.0917 48.0444 35.0848 48.3372 34.892L50.8668 33.225L51.883 34.2412L50.216 36.7708C50.0231 37.0635 50.0163 37.4413 50.1984 37.7408C50.6449 38.475 50.9746 39.2708 51.1783 40.1061C51.2614 40.4466 51.5333 40.7088 51.8766 40.7793L54.8439 41.3893V42.8264H54.844ZM63.9951 48.8792V35.3365C66.2717 34.9097 68.0002 32.9085 68.0002 30.5099C68.0002 27.8015 65.7969 25.598 63.0884 25.598C61.6003 25.598 60.2656 26.264 59.3641 27.3128L47.6336 20.5402C47.8132 20.0302 47.9122 19.4826 47.9122 18.9121C47.9122 16.2035 45.7087 14.0001 43.0002 14.0001C40.2918 14.0001 38.0883 16.2035 38.0883 18.9119C38.0883 19.4825 38.1871 20.0302 38.3669 20.54L26.6363 27.3128C25.7349 26.2642 24.4002 25.598 22.9121 25.598C20.2038 25.598 18.0002 27.8015 18.0002 30.5099C18.0002 32.9085 19.7289 34.9097 22.0054 35.3365V48.8792C19.7289 49.3059 18.0002 51.3071 18.0002 53.7057C18.0002 56.4141 20.2036 58.6176 22.9121 58.6176C24.4002 58.6176 25.7349 57.9515 26.6363 56.9028L38.3669 63.6755C38.1873 64.1854 38.0883 64.7331 38.0883 65.3036C38.0883 68.012 40.2918 70.2156 43.0002 70.2156C45.7087 70.2156 47.9122 68.012 47.9122 65.3036C47.9122 64.7331 47.8134 64.1854 47.6336 63.6755L59.3641 56.9028C60.2656 57.9514 61.6003 58.6176 63.0884 58.6176C65.7969 58.6176 68.0002 56.4141 68.0002 53.7057C68.0002 51.3071 66.2716 49.3059 63.9951 48.8792ZM63.0884 27.4115C64.7969 27.4115 66.1868 28.8014 66.1868 30.51C66.1868 32.2185 64.7969 33.6084 63.0884 33.6084C61.3799 33.6084 59.99 32.2185 59.99 30.51C59.9899 28.8014 61.3799 27.4115 63.0884 27.4115ZM43.0002 15.8135C44.7088 15.8135 46.0988 17.2035 46.0988 18.9119C46.0988 20.6204 44.7088 22.0105 43.0002 22.0105C41.2917 22.0105 39.9017 20.6205 39.9017 18.9119C39.9017 17.2034 41.2917 15.8135 43.0002 15.8135ZM19.8136 30.5099C19.8136 28.8013 21.2036 27.4114 22.9121 27.4114C24.6206 27.4114 26.0106 28.8013 26.0106 30.5099C26.0106 32.2183 24.6206 33.6083 22.9121 33.6083C21.2036 33.6084 19.8136 32.2185 19.8136 30.5099ZM22.9121 56.8042C21.2036 56.8042 19.8136 55.4142 19.8136 53.7057C19.8136 51.9972 21.2036 50.6073 22.9121 50.6073C24.6206 50.6073 26.0106 51.9972 26.0106 53.7057C26.0106 55.4142 24.6206 56.8042 22.9121 56.8042ZM43.0002 68.4022C41.2917 68.4022 39.9017 67.0122 39.9017 65.3036C39.9017 63.5951 41.2917 62.2052 43.0002 62.2052C44.7088 62.2052 46.0988 63.5952 46.0988 65.3036C46.0988 67.0121 44.7088 68.4022 43.0002 68.4022ZM46.7245 62.1065C45.823 61.0579 44.4884 60.3918 43.0002 60.3918C41.5121 60.3918 40.1775 61.0579 39.276 62.1065L27.5454 55.3338C27.7251 54.8239 27.824 54.2762 27.824 53.7057C27.824 51.3071 26.0954 49.3059 23.8188 48.8792V35.3365C26.0954 34.9097 27.824 32.9085 27.824 30.5099C27.824 29.9394 27.7252 29.3917 27.5454 28.8818L39.276 22.1092C40.1775 23.1578 41.5121 23.8239 43.0002 23.8239C44.4884 23.8239 45.823 23.1578 46.7245 22.1092L58.4551 28.8818C58.2754 29.3917 58.1765 29.9394 58.1765 30.5099C58.1765 32.9085 59.9051 34.9097 62.1816 35.3365V48.8791C59.905 49.3059 58.1765 51.3071 58.1765 53.7056C58.1765 54.2761 58.2753 54.8237 58.4551 55.3337L46.7245 62.1065ZM63.0884 56.8042C61.3799 56.8042 59.99 55.4142 59.99 53.7057C59.99 51.9972 61.38 50.6073 63.0884 50.6073C64.7969 50.6073 66.1868 51.9972 66.1868 53.7057C66.1868 55.4142 64.7969 56.8042 63.0884 56.8042Z" fill="#01001A"/>
</svg>
