<svg width="29" height="45" viewBox="0 0 29 45" fill="none" xmlns="http://www.w3.org/2000/svg">
<path d="M7.25 44.6154C11.252 44.6154 14.5 41.3674 14.5 37.3654V30.1154H7.25C3.248 30.1154 0 33.3634 0 37.3654C0 41.3674 3.248 44.6154 7.25 44.6154Z" fill="#0ACF83"/>
<path d="M0 22.3077C0 17.9978 3.248 14.5 7.25 14.5H14.5V30.1154H7.25C3.248 30.1154 0 26.6175 0 22.3077Z" fill="#A259FF"/>
<path d="M0 7.25C0 3.248 3.248 0 7.25 0H14.5V14.5H7.25C3.248 14.5 0 11.252 0 7.25Z" fill="#F24E1E"/>
<path d="M14.5 0H21.75C25.752 0 29 3.248 29 7.25C29 11.252 25.752 14.5 21.75 14.5H14.5V0Z" fill="#FF7262"/>
<path d="M29 22.3077C29 26.6175 25.752 30.1154 21.75 30.1154C17.748 30.1154 14.5 26.6175 14.5 22.3077C14.5 17.9978 17.748 14.5 21.75 14.5C25.752 14.5 29 17.9978 29 22.3077Z" fill="#1ABCFE"/>
</svg>
