<svg width="40" height="42" viewBox="0 0 40 42" fill="none" xmlns="http://www.w3.org/2000/svg">
<path d="M30.713 13.7885V8.8016C31.372 8.49361 31.93 8.00478 32.322 7.39202C32.714 6.77925 32.9238 6.06776 32.9272 5.34035V5.22582C32.9272 3.10495 31.2079 1.38563 29.087 1.38563H28.9725C27.954 1.38563 26.9772 1.79022 26.2571 2.5104C25.5369 3.23057 25.1323 4.20734 25.1323 5.22582V5.34035C25.1357 6.06776 25.3455 6.77925 25.7375 7.39202C26.1295 8.00478 26.6875 8.49361 27.3465 8.8016V13.7885C25.4525 14.0785 23.6687 14.8638 22.1758 16.0649L8.49903 5.41246C8.59659 5.06039 8.64749 4.69843 8.65314 4.33505C8.65482 3.47922 8.40264 2.64211 7.9285 1.92962C7.45436 1.21713 6.77957 0.661259 5.98947 0.332325C5.19937 0.00339043 4.32946 -0.0838308 3.48978 0.0816938C2.65011 0.247218 1.87838 0.658052 1.27223 1.26223C0.666073 1.86641 0.252718 2.63678 0.0844498 3.47591C-0.0838188 4.31504 0.000566059 5.18523 0.326916 5.9764C0.653266 6.76757 1.20692 7.44418 1.91786 7.92064C2.6288 8.39711 3.46508 8.65202 4.32091 8.65314C5.06965 8.64962 5.80436 8.44973 6.45168 8.07344L19.9192 18.5534C18.7093 20.3811 18.0782 22.5309 18.1079 24.7225C18.1377 26.9142 18.827 29.0461 20.086 30.8403L15.9899 34.9378C15.6588 34.8319 15.3139 34.7757 14.9663 34.7709C14.2638 34.7715 13.5772 34.9803 12.9933 35.3709C12.4094 35.7616 11.9544 36.3165 11.6859 36.9657C11.4173 37.6148 11.3471 38.329 11.4843 39.018C11.6215 39.707 11.9599 40.3398 12.4566 40.8366C12.9534 41.3333 13.5862 41.6717 14.2752 41.8088C14.9642 41.946 15.6784 41.8759 16.3275 41.6073C16.9767 41.3388 17.5316 40.8838 17.9223 40.2999C18.3129 39.716 18.5217 39.0294 18.5222 38.3269C18.5177 37.9793 18.4615 37.6343 18.3554 37.3033L22.4077 33.2496C23.7291 34.2669 25.2658 34.9682 26.9002 35.2999C28.5345 35.6316 30.2231 35.5847 31.8366 35.163C33.45 34.7413 34.9455 33.9558 36.2085 32.8668C37.4715 31.7778 38.4685 30.4142 39.1231 28.8804C39.7777 27.3465 40.0725 25.6832 39.9849 24.0179C39.8974 22.3525 39.4298 20.7293 38.618 19.2726C37.8063 17.8158 36.6718 16.5642 35.3016 15.6136C33.9314 14.6631 32.3618 14.0387 30.713 13.7885ZM29.0333 30.1899C28.2844 30.2105 27.5389 30.0808 26.841 29.8084C26.1431 29.536 25.5068 29.1265 24.9698 28.6041C24.4328 28.0817 24.006 27.4569 23.7145 26.7668C23.4231 26.0766 23.2729 25.335 23.2729 24.5858C23.2729 23.8366 23.4231 23.095 23.7145 22.4049C24.006 21.7147 24.4328 21.0899 24.9698 20.5675C25.5068 20.0451 26.1431 19.6356 26.841 19.3632C27.5389 19.0909 28.2844 18.9612 29.0333 18.9818C30.4848 19.0326 31.8599 19.6448 32.869 20.6893C33.8781 21.7339 34.4425 23.1293 34.4432 24.5817C34.444 26.0341 33.881 27.43 32.8729 28.4756C31.8649 29.5212 30.4904 30.1347 29.0389 30.187" fill="#FF7A59"/>
</svg>
