<svg width="75" height="75" viewBox="0 0 75 75" fill="none" xmlns="http://www.w3.org/2000/svg">
<circle cx="37.5" cy="37.5" r="37" fill="#01001A" stroke="black"/>
<path d="M36.8651 52.7692H22.9838C24.5987 50.7193 25.4734 48.1836 25.4657 45.5739V23.2308H46.8807V35.0132C46.8807 35.1764 46.9455 35.333 47.0609 35.4484C47.1763 35.5638 47.3329 35.6286 47.4961 35.6286C47.6593 35.6286 47.8158 35.5638 47.9312 35.4484C48.0466 35.333 48.1115 35.1764 48.1115 35.0132V22.6154C48.1115 22.5346 48.0956 22.4545 48.0647 22.3799C48.0337 22.3052 47.9884 22.2373 47.9313 22.1802C47.8741 22.123 47.8063 22.0777 47.7316 22.0468C47.6569 22.0159 47.5769 22 47.4961 22H24.8503C24.7695 22 24.6895 22.0159 24.6148 22.0468C24.5402 22.0777 24.4723 22.123 24.4152 22.1802C24.358 22.2373 24.3127 22.3052 24.2818 22.3799C24.2508 22.4545 24.2349 22.5346 24.235 22.6154V45.5739C24.2387 46.9442 23.9707 48.3017 23.4464 49.5677C22.922 50.8337 22.1518 51.9832 21.1803 52.9495C21.0942 53.0356 21.0356 53.1452 21.0118 53.2646C20.9881 53.384 21.0003 53.5077 21.0468 53.6201C21.0934 53.7326 21.1723 53.8287 21.2735 53.8963C21.3747 53.9639 21.4937 54 21.6154 54H36.8651C37.0283 54 37.1848 53.9352 37.3002 53.8198C37.4156 53.7044 37.4805 53.5478 37.4805 53.3846C37.4805 53.2214 37.4156 53.0649 37.3002 52.9495C37.1848 52.8341 37.0283 52.7692 36.8651 52.7692Z" fill="white"/>
<path d="M43.2323 29.751H29.1154C28.9522 29.751 28.7956 29.8159 28.6802 29.9313C28.5648 30.0467 28.5 30.2032 28.5 30.3664C28.5 30.5296 28.5648 30.6862 28.6802 30.8016C28.7956 30.917 28.9522 30.9818 29.1154 30.9818H43.2323C43.3955 30.9818 43.552 30.917 43.6675 30.8016C43.7829 30.6862 43.8477 30.5296 43.8477 30.3664C43.8477 30.2032 43.7829 30.0467 43.6675 29.9313C43.552 29.8159 43.3955 29.751 43.2323 29.751Z" fill="white"/>
<path d="M43.8477 34.536C43.8477 34.4552 43.8318 34.3751 43.8009 34.3005C43.77 34.2258 43.7246 34.1579 43.6675 34.1008C43.6104 34.0436 43.5425 33.9983 43.4678 33.9674C43.3932 33.9365 43.3131 33.9206 43.2323 33.9206H29.1154C28.9522 33.9206 28.7956 33.9854 28.6802 34.1008C28.5648 34.2162 28.5 34.3728 28.5 34.536C28.5 34.6992 28.5648 34.8557 28.6802 34.9711C28.7956 35.0865 28.9522 35.1514 29.1154 35.1514H43.2323C43.3131 35.1514 43.3932 35.1355 43.4678 35.1046C43.5425 35.0736 43.6104 35.0283 43.6675 34.9712C43.7246 34.914 43.77 34.8462 43.8009 34.7715C43.8318 34.6968 43.8477 34.6168 43.8477 34.536Z" fill="white"/>
<path d="M37.7118 38.7056C37.7119 38.6248 37.696 38.5447 37.665 38.4701C37.6341 38.3954 37.5888 38.3276 37.5316 38.2704C37.4745 38.2133 37.4066 38.1679 37.332 38.137C37.2573 38.1061 37.1773 38.0902 37.0965 38.0902H29.1154C28.9522 38.0902 28.7956 38.155 28.6802 38.2705C28.5648 38.3859 28.5 38.5424 28.5 38.7056C28.5 38.8688 28.5648 39.0253 28.6802 39.1407C28.7956 39.2561 28.9522 39.321 29.1154 39.321H37.0965C37.1773 39.321 37.2573 39.3051 37.332 39.2742C37.4066 39.2433 37.4745 39.1979 37.5316 39.1408C37.5888 39.0836 37.6341 39.0158 37.665 38.9411C37.696 38.8664 37.7119 38.7864 37.7118 38.7056Z" fill="white"/>
<path d="M29.1154 42.2596C28.9522 42.2596 28.7956 42.3244 28.6802 42.4398C28.5648 42.5552 28.5 42.7118 28.5 42.875C28.5 43.0382 28.5648 43.1947 28.6802 43.3101C28.7956 43.4255 28.9522 43.4904 29.1154 43.4904H34.1349C34.2981 43.4904 34.4547 43.4255 34.5701 43.3101C34.6855 43.1947 34.7503 43.0382 34.7503 42.875C34.7503 42.7118 34.6855 42.5552 34.5701 42.4398C34.4547 42.3244 34.2981 42.2596 34.1349 42.2596H29.1154Z" fill="white"/>
<path d="M51.1412 40.42C50.1119 39.3889 48.8189 38.6606 47.4037 38.3146C45.9884 37.9686 44.5053 38.0183 43.1164 38.4582C41.7274 38.8982 40.4862 39.7115 39.5282 40.8092C38.5703 41.9069 37.9325 43.2468 37.6845 44.6825L37.1956 44.1935C37.0802 44.0781 36.9237 44.0132 36.7605 44.0132C36.5973 44.0132 36.4408 44.0781 36.3254 44.1935C36.21 44.3089 36.1451 44.4654 36.1451 44.6286C36.1451 44.7918 36.21 44.9483 36.3254 45.0637L37.7414 46.4797C37.8571 46.5948 38.0137 46.6595 38.1769 46.6595C38.3402 46.6595 38.4968 46.5948 38.6125 46.4797L40.0288 45.0637C40.1442 44.9483 40.209 44.7918 40.209 44.6286C40.209 44.4654 40.1442 44.3089 40.0288 44.1935C39.9134 44.0781 39.7569 44.0132 39.5937 44.0132C39.4305 44.0132 39.274 44.0781 39.1586 44.1935L39.0189 44.3332C39.3972 42.9024 40.2375 41.6366 41.4091 40.7324C42.5807 39.8282 44.0181 39.3361 45.498 39.3326C46.978 39.3291 48.4177 39.8144 49.5935 40.7131C50.7694 41.6118 51.6156 42.8737 52.0007 44.3026C52.3858 45.7316 52.2883 47.2477 51.7233 48.6156C51.1583 49.9835 50.1575 51.1265 48.8762 51.8672C47.595 52.6079 46.105 52.9048 44.6377 52.7118C43.1703 52.5188 41.8078 51.8467 40.7617 50.7998C40.6463 50.6844 40.4898 50.6196 40.3266 50.6196C40.1634 50.6196 40.0069 50.6844 39.8915 50.7998C39.7761 50.9152 39.7113 51.0717 39.7113 51.2349C39.7113 51.3981 39.7761 51.5546 39.8915 51.67C41.3836 53.1606 43.4066 53.9977 45.5156 53.9972C47.6247 53.9966 49.6473 53.1585 51.1386 51.6672C52.63 50.1758 53.468 48.1532 53.4685 46.0441C53.4689 43.935 52.6318 41.9121 51.1412 40.42Z" fill="white"/>
<path d="M45.5105 40.717C45.4297 40.717 45.3497 40.7329 45.275 40.7638C45.2003 40.7947 45.1325 40.84 45.0753 40.8972C45.0182 40.9543 44.9729 41.0222 44.9419 41.0968C44.911 41.1715 44.8951 41.2515 44.8951 41.3324V46.0451C44.8961 46.2084 44.961 46.3648 45.076 46.4808L47.3062 48.711C47.4218 48.8251 47.578 48.8889 47.7405 48.8884C47.903 48.8879 48.0587 48.8231 48.1736 48.7082C48.2885 48.5933 48.3533 48.4376 48.3538 48.2751C48.3543 48.1126 48.2905 47.9565 48.1764 47.8408L46.1259 45.7903V41.3324C46.1259 41.2515 46.11 41.1715 46.0791 41.0968C46.0482 41.0222 46.0029 40.9543 45.9457 40.8972C45.8886 40.84 45.8207 40.7947 45.746 40.7638C45.6714 40.7329 45.5913 40.717 45.5105 40.717Z" fill="white"/>
</svg>
