<svg width="75" height="75" viewBox="0 0 75 75" fill="none" xmlns="http://www.w3.org/2000/svg">
<circle cx="37.5" cy="37.5" r="37.5" fill="#01001A"/>
<path d="M24.0241 52.248C23.6992 52.248 23.4409 51.9918 23.4409 51.6695C23.4409 51.3472 23.6992 51.091 24.0241 51.091H34.8968C35.2217 51.091 35.48 51.3472 35.48 51.6695C35.48 51.9918 35.2217 52.248 34.8968 52.248H24.0241ZM24.0241 50.0745C23.6992 50.0745 23.4409 49.8183 23.4409 49.496C23.4409 49.1736 23.6992 48.9174 24.0241 48.9174H34.8968C35.2217 48.9174 35.48 49.1736 35.48 49.496C35.48 49.8183 35.2217 50.0745 34.8968 50.0745H24.0241ZM24.0241 46.8018C23.6992 46.8018 23.4409 46.5456 23.4409 46.2233C23.4409 45.9009 23.6992 45.6447 24.0241 45.6447H30.2478C30.5727 45.6447 30.831 45.9009 30.831 46.2233C30.831 46.5456 30.5727 46.8018 30.2478 46.8018H24.0241ZM47.2525 53.3306V54.0248C47.2525 54.3471 46.9942 54.6033 46.6693 54.6033C46.3443 54.6033 46.0861 54.3471 46.0861 54.0248V53.3306C44.7447 53.1571 43.3617 52.2976 43.3617 50.934C43.3617 50.6116 43.6199 50.3554 43.9449 50.3554C44.2698 50.3554 44.5281 50.6116 44.5281 50.934C44.5281 52.0414 46.8942 52.7108 48.2606 51.7687C48.5939 51.5373 48.8022 51.2397 48.8022 50.934C48.8022 50.0083 47.6857 49.8265 46.5693 49.6447C44.9696 49.3802 43.3617 49.1241 43.3617 47.215C43.3617 45.8514 44.7447 44.9919 46.0861 44.81V44.1158C46.0861 43.7935 46.3443 43.5373 46.6693 43.5373C46.9942 43.5373 47.2525 43.7935 47.2525 44.1158V44.81C48.5939 44.9836 49.9769 45.8431 49.9769 47.215C49.9769 47.5373 49.7186 47.7935 49.3937 47.7935C49.0688 47.7935 48.8105 47.5373 48.8105 47.215C48.8105 46.1076 46.4443 45.4381 45.0779 46.372C44.7447 46.6034 44.5364 46.9009 44.5364 47.215C44.5364 48.1406 45.6528 48.3224 46.7693 48.5042C48.3772 48.7604 49.9769 49.0249 49.9769 50.934C49.9686 52.2893 48.5939 53.1571 47.2525 53.3306ZM46.6693 58C44.0615 58 41.7037 56.9008 40.054 55.1323H20.5832C20.2583 55.1323 20 54.8761 20 54.5538V24.2565C20 24.2317 20 24.2069 20.0083 24.1821C20.025 24.0499 20.0833 23.9342 20.175 23.8433L25.8987 18.1657C26.082 17.9839 26.307 18.0004 26.307 18.0004H46.6693C46.9942 18.0004 47.2525 18.2566 47.2525 18.5789V40.1572C51.9681 40.4547 55.6757 44.3472 55.6757 49.0745C55.6757 54 51.6432 58 46.6693 58ZM39.1459 53.9752C36.7964 50.4381 37.288 45.7439 40.304 42.7522C41.8037 41.2646 43.8365 40.2977 46.0861 40.1572V19.1574H26.8902V24.2565C26.8902 24.5788 26.6319 24.835 26.307 24.835H21.1664V53.9752H39.1459ZM41.1288 54.5703C44.1865 57.6033 49.1521 57.6033 52.2098 54.5703C55.2674 51.5373 55.2674 46.6117 52.2098 43.5704C49.1521 40.5374 44.1865 40.5374 41.1288 43.5704C38.0628 46.6034 38.0628 51.529 41.1288 54.5703ZM40.9455 27.9176C40.7539 27.6615 40.8122 27.2978 41.0621 27.1077C41.3204 26.9177 41.687 26.9755 41.8786 27.2317C43.3033 29.1408 43.9782 31.4548 43.8699 33.7358C43.6533 38.5291 40.079 42.5291 35.305 43.3142C33.4638 43.62 31.5475 43.4216 29.7812 42.7109L29.9479 43.0167C30.0978 43.2977 29.9979 43.6448 29.7146 43.8018C29.4313 43.9588 29.0814 43.8514 28.9231 43.5787L27.8317 41.6035C27.6234 41.2233 27.89 40.7274 28.3899 40.7522L30.6227 40.8018C31.2226 40.8101 31.4059 41.6117 30.881 41.8845C36.5548 43.653 42.4285 39.62 42.6951 33.6862C42.8034 31.6614 42.2119 29.6118 40.9455 27.9176ZM37.2963 23.5293C37.138 23.2483 37.2463 22.9012 37.5212 22.7441C37.8045 22.5954 38.1628 22.6946 38.3127 22.9755L39.4042 24.9507C39.6125 25.3309 39.3458 25.835 38.846 25.802L36.6131 25.7524C36.0216 25.7359 35.8299 24.9425 36.3465 24.6697C32.9722 23.6284 29.2397 24.5788 26.8152 27.2896C25.3738 28.9011 24.624 30.8763 24.5324 32.868C24.4407 34.9011 25.0323 36.9506 26.2986 38.6366C26.4903 38.8927 26.432 39.2564 26.182 39.4465C25.9237 39.6365 25.5571 39.5787 25.3655 39.3308C23.9408 37.4217 23.266 35.1077 23.3743 32.8267C23.5992 28.0251 27.1735 24.0251 31.9224 23.24C33.7804 22.9342 35.705 23.1408 37.4629 23.8433L37.2963 23.5293ZM33.6304 29.9424C35.4883 29.9424 36.9964 31.4383 36.9964 33.273C36.9964 35.1159 35.4883 36.6118 33.6304 36.6118C31.7725 36.6118 30.2728 35.1159 30.2728 33.273C30.2645 31.4383 31.7725 29.9424 33.6304 29.9424ZM35.1801 31.7358C33.797 30.3639 31.4309 31.3391 31.4309 33.273C31.4309 35.2068 33.797 36.182 35.1801 34.8184C36.0382 33.9672 36.0382 32.587 35.1801 31.7358ZM32.6306 26.2069H34.6302C34.9551 26.2069 35.2134 26.4631 35.2134 26.7854V27.6201C35.68 27.7524 36.1299 27.9342 36.5464 28.1656L37.138 27.5705C37.3629 27.3474 37.7379 27.3474 37.9628 27.5705L39.3792 28.9755C39.6041 29.1986 39.6041 29.5623 39.3792 29.7937L38.7793 30.3804C39.0126 30.7937 39.2042 31.2399 39.3292 31.7027H40.1707C40.4956 31.7027 40.7539 31.9589 40.7539 32.2812V34.2647C40.7539 34.5953 40.4873 34.8597 40.1207 34.8432H39.3375C39.2042 35.306 39.0209 35.7523 38.7876 36.1655L39.3875 36.7605C39.6125 36.9837 39.6125 37.3556 39.3875 37.5787L37.9711 38.9837C37.7462 39.2068 37.3713 39.2068 37.1463 38.9837L36.5548 38.3886C36.1382 38.62 35.6883 38.8101 35.2217 38.9341V39.7688C35.2217 40.0911 34.9635 40.3473 34.6385 40.3473H32.639C32.314 40.3473 32.0557 40.0911 32.0557 39.7688V38.9341L31.3726 38.7027C31.1476 38.6118 30.931 38.5043 30.7227 38.3886L30.1312 38.9837C29.9062 39.2068 29.5313 39.2068 29.3063 38.9837L27.89 37.5787C27.665 37.3556 27.665 36.9837 27.89 36.7605L28.4898 36.1655C28.2566 35.7523 28.0649 35.306 27.94 34.8432H27.0985C26.7735 34.8432 26.5153 34.587 26.5153 34.2647V32.2812C26.5153 31.9589 26.7735 31.7027 27.0985 31.7027H27.9233C28.0566 31.2399 28.2399 30.8019 28.4732 30.3804L27.8733 29.7937C27.6484 29.5623 27.6484 29.1986 27.8733 28.9755L29.2897 27.5705C29.5146 27.3474 29.8812 27.3474 30.1145 27.5705L30.706 28.1656C31.1226 27.9342 31.5725 27.7441 32.0391 27.6201V26.7854C32.0474 26.4631 32.3057 26.2069 32.6306 26.2069ZM34.047 27.3639H33.2138V28.0747C33.2138 28.3474 33.0139 28.5871 32.7389 28.6449C32.1641 28.7524 31.4559 29.0251 30.9893 29.3557C30.7644 29.5375 30.4311 29.5209 30.2228 29.3061L29.7146 28.8019L29.123 29.3887L29.6313 29.8928C29.8312 30.0912 29.8645 30.397 29.7062 30.6284C29.3813 31.0994 29.0647 31.7936 28.9731 32.3556C28.9397 32.6449 28.6898 32.868 28.3899 32.868H27.6734V33.6945H28.3899C28.6648 33.6945 28.9064 33.8845 28.9647 34.1655C29.0731 34.7358 29.3397 35.4382 29.6813 35.901C29.8645 36.1242 29.8479 36.4548 29.6313 36.6614L29.123 37.1655L29.7146 37.7523L30.2228 37.2481C30.4228 37.0581 30.731 37.025 30.9643 37.182C31.2309 37.3638 31.5142 37.5126 31.8141 37.6366C32.0974 37.7523 32.389 37.8432 32.7056 37.901C32.9972 37.9341 33.2222 38.182 33.2222 38.4713V39.1903H34.0553V38.4713C34.0553 38.1985 34.2553 37.9589 34.5302 37.901C35.1051 37.7936 35.8133 37.5291 36.2798 37.1903C36.5048 37.0167 36.8381 37.0333 37.0463 37.2399L37.5546 37.744L38.1461 37.1572L37.6379 36.6531C37.4463 36.463 37.4046 36.1572 37.5712 35.9176C37.9378 35.3887 38.1878 34.7936 38.3044 34.1573C38.3544 33.8928 38.5877 33.6862 38.8793 33.6862H39.5958V32.8515H38.8793C38.6043 32.8515 38.3627 32.6531 38.3044 32.3804C38.1961 31.8102 37.9295 31.1077 37.5879 30.6449C37.4129 30.4218 37.4296 30.0912 37.6379 29.8846L38.1461 29.3804L37.5546 28.7937L37.0463 29.2978C36.8547 29.4961 36.5464 29.5292 36.3048 29.3722C35.8299 29.0499 35.1301 28.7358 34.5635 28.6449C34.2719 28.6119 34.047 28.3722 34.047 28.0747V27.3639ZM21.9996 23.678H25.7321V19.9756L21.9996 23.678Z" fill="white"/>
</svg>
