<svg width="75" height="75" viewBox="0 0 75 75" fill="none" xmlns="http://www.w3.org/2000/svg">
<circle cx="37.5" cy="37.5" r="37.5" fill="#01001A"/>
<path d="M22 47.2514C22 56.2474 29.7053 57 37.5977 57C45.4901 57 53.1954 56.2474 53.1954 47.2514C53.1954 38.5077 46.8439 33.2662 43.9017 31.3074C44.2432 31.0711 44.5003 30.7321 44.6356 30.3396C44.7709 29.947 44.7774 29.5216 44.6541 29.1251C44.5308 28.7287 44.2842 28.3819 43.9502 28.1354C43.6161 27.8888 43.2121 27.7553 42.7969 27.7544H42.5694L44.3892 24.2709C44.588 23.9159 44.7078 23.5221 44.7403 23.1164C44.7729 22.7108 44.7174 22.303 44.5776 21.9208C44.4478 21.5581 44.2412 21.2277 43.972 20.9522C43.7029 20.6766 43.3774 20.4623 43.0179 20.324C42.4553 20.1136 41.8632 19.993 41.2631 19.9666C40.8897 19.3359 40.3506 18.8197 39.7044 18.474C39.0581 18.1283 38.3295 17.9664 37.5977 18.0058C36.8673 17.968 36.1404 18.1307 35.4958 18.4763C34.8512 18.8219 34.3134 19.3372 33.9407 19.9666C33.3396 19.9928 32.7463 20.1134 32.1827 20.324C31.8232 20.4624 31.4977 20.6766 31.2286 20.9522C30.9594 21.2278 30.7528 21.5582 30.6229 21.9208C30.4837 22.2998 30.4276 22.7043 30.4584 23.1068C30.4892 23.5094 30.6063 23.9006 30.8016 24.254L32.6259 27.7544H32.3985C31.9833 27.7553 31.5792 27.8888 31.2452 28.1354C30.9111 28.3819 30.6645 28.7287 30.5412 29.1251C30.418 29.5216 30.4244 29.947 30.5598 30.3396C30.6951 30.7321 30.9522 31.0711 31.2936 31.3074C28.3515 33.2662 22 38.5077 22 47.2514ZM31.9435 23.6359C31.8362 23.444 31.7716 23.2312 31.7542 23.012C31.7368 22.7928 31.767 22.5724 31.8428 22.366C31.9076 22.1782 32.0129 22.0069 32.1511 21.8642C32.2894 21.7215 32.4572 21.6108 32.6428 21.54C33.0219 21.3992 33.4186 21.3117 33.8217 21.28L34.3612 23.9849C34.3911 24.1317 34.4709 24.2636 34.587 24.3584C34.703 24.4531 34.8482 24.5049 34.9981 24.5048C35.0417 24.5051 35.0853 24.5007 35.128 24.4918C35.2117 24.4748 35.2912 24.4414 35.3619 24.3936C35.4327 24.3459 35.4933 24.2846 35.5404 24.2134C35.5875 24.1422 35.62 24.0624 35.6363 23.9786C35.6525 23.8948 35.6521 23.8086 35.635 23.725L35.0273 20.6854C35.2808 20.2353 35.657 19.8665 36.1121 19.6222C36.5673 19.3779 37.0825 19.2681 37.5977 19.3056C38.1131 19.2683 38.6284 19.3784 39.0836 19.6231C39.5387 19.8677 39.9149 20.2369 40.168 20.6873L39.5604 23.725C39.5433 23.8086 39.5429 23.8948 39.5591 23.9786C39.5753 24.0624 39.6079 24.1422 39.655 24.2134C39.7021 24.2846 39.7627 24.3459 39.8334 24.3936C39.9042 24.4414 39.9837 24.4748 40.0673 24.4918C40.1101 24.5008 40.1536 24.5051 40.1973 24.5048C40.347 24.5047 40.4921 24.4529 40.608 24.3582C40.7239 24.2634 40.8036 24.1316 40.8335 23.9849L41.3743 21.282C41.7772 21.3137 42.1737 21.4011 42.5525 21.5419C42.7383 21.6126 42.9063 21.7233 43.0446 21.866C43.183 22.0087 43.2883 22.1801 43.3532 22.368C43.4294 22.5775 43.459 22.801 43.4401 23.0231C43.4211 23.2452 43.354 23.4606 43.2434 23.6541L41.1033 27.7544H34.0921L31.9435 23.6359ZM32.3985 29.0542H42.7969C42.9693 29.0542 43.1346 29.1226 43.2565 29.2445C43.3783 29.3664 43.4468 29.5317 43.4468 29.7041C43.4468 29.8764 43.3783 30.0417 43.2565 30.1636C43.1346 30.2855 42.9693 30.354 42.7969 30.354H32.3985C32.2261 30.354 32.0608 30.2855 31.9389 30.1636C31.817 30.0417 31.7486 29.8764 31.7486 29.7041C31.7486 29.5317 31.817 29.3664 31.9389 29.2445C32.0608 29.1226 32.2261 29.0542 32.3985 29.0542ZM33.2108 31.6538H41.9845C43.1544 32.2939 51.8956 37.4022 51.8956 47.2514C51.8956 54.3542 46.8705 55.7002 37.5977 55.7002C28.3249 55.7002 23.2998 54.3542 23.2998 47.2514C23.2998 37.4022 32.0391 32.2939 33.2108 31.6538Z" fill="white"/>
<path d="M36.9488 44.5128V49.1648C35.8987 49.1081 34.9032 48.6788 34.1412 47.954C34.0259 47.8259 33.8644 47.7488 33.6922 47.7397C33.5201 47.7306 33.3514 47.7903 33.2232 47.9056C33.0951 48.0209 33.018 48.1824 33.0089 48.3546C32.9998 48.5267 33.0595 48.6954 33.1748 48.8236C34.1839 49.8236 35.5295 50.4116 36.9488 50.4731V51.8008C36.9488 51.9732 37.0173 52.1385 37.1392 52.2604C37.261 52.3822 37.4263 52.4507 37.5987 52.4507C37.7711 52.4507 37.9364 52.3822 38.0583 52.2604C38.1801 52.1385 38.2486 51.9732 38.2486 51.8008V50.4718C40.8482 50.2573 42.7979 48.782 42.7979 46.9265C42.7979 44.75 40.4771 44.039 38.2486 43.4911V38.8391C39.2987 38.8958 40.2942 39.3251 41.0562 40.0499C41.1715 40.1781 41.333 40.2552 41.5052 40.2642C41.6773 40.2733 41.846 40.2136 41.9742 40.0983C42.1023 39.983 42.1794 39.8215 42.1885 39.6494C42.1976 39.4772 42.1379 39.3085 42.0226 39.1803C41.0135 38.1804 39.6679 37.5923 38.2486 37.5309V36.2031C38.2486 36.0308 38.1801 35.8655 38.0583 35.7436C37.9364 35.6217 37.7711 35.5532 37.5987 35.5532C37.4263 35.5532 37.261 35.6217 37.1392 35.7436C37.0173 35.8655 36.9488 36.0308 36.9488 36.2031V37.5322C34.3492 37.7466 32.3995 39.2219 32.3995 41.0774C32.3995 43.2539 34.7203 43.9649 36.9488 44.5128ZM41.4981 46.9265C41.4981 48.0314 40.0683 48.9789 38.2486 49.1654V44.8325C40.2373 45.3427 41.4981 45.8418 41.4981 46.9265ZM36.9488 38.8385V43.1714C34.9601 42.6612 33.6993 42.1621 33.6993 41.0774C33.6993 39.9726 35.1323 39.025 36.9488 38.8385Z" fill="white"/>
</svg>
