<svg width="87" height="87" viewBox="0 0 87 87" fill="none" xmlns="http://www.w3.org/2000/svg">
<circle cx="44.5" cy="44.5" r="42" fill="#01001A" stroke="#01001A"/>
<circle cx="42.5" cy="42.5" r="42" fill="#F5F6FA" stroke="#01001A"/>
<path d="M57.5798 34.8904C57.7468 30.8431 56.3625 27.2325 53.5781 24.4481C50.7094 21.5794 46.8809 20 42.7966 20C38.7123 20 34.8838 21.5794 32.0159 24.4481C29.2315 27.2334 27.8473 30.8439 28.0134 34.8904C28.1628 38.5142 29.5163 42.3233 31.9298 45.9049L37.7481 54.5419C33.0381 55.1439 28.0503 56.7646 28.0503 59.6176C28.0503 63.1139 35.6476 65 42.7957 65C49.9438 65 57.5411 63.1139 57.5411 59.6176C57.5411 56.7646 52.5533 55.1439 47.8441 54.5419L53.6642 45.9049C56.076 42.3216 57.4304 38.5133 57.5798 34.8904ZM56.1331 59.6176C56.1331 60.5 54.7418 61.5116 52.5023 62.2578C49.9201 63.1183 46.473 63.592 42.7957 63.592C39.1192 63.592 35.673 63.1183 33.0899 62.2578C30.8496 61.5116 29.4583 60.4991 29.4583 59.6176C29.4583 58.2228 32.8808 56.4605 38.6341 55.855L42.2121 61.1662C42.3431 61.3605 42.5619 61.4765 42.7957 61.4765C43.0295 61.4765 43.2483 61.3605 43.3793 61.1662L46.9582 55.855C52.7106 56.4605 56.1331 58.2228 56.1331 59.6176ZM46.0274 54.7177C46.0257 54.7203 46.0248 54.7221 46.023 54.7247L42.7957 59.5139L33.0978 45.1183C29.2526 39.4106 27.2109 31.2438 33.0117 25.4431C35.6142 22.8406 39.0893 21.4071 42.7966 21.4071C46.5047 21.4071 49.9799 22.8406 52.5823 25.4422C58.3813 31.2412 56.3405 39.408 52.4962 45.1174L46.0274 54.7177ZM42.7957 26.6551C40.7408 26.6551 38.8151 27.4505 37.3728 28.8945C34.3828 31.8846 34.3828 36.7502 37.3728 39.7402C38.816 41.1843 40.7417 41.9797 42.7966 41.9797C44.8515 41.9797 46.7771 41.1843 48.2194 39.7411C49.6635 38.2979 50.4589 36.3723 50.4589 34.3174C50.4589 32.2625 49.6635 30.3368 48.2194 28.8945C46.7763 27.4505 44.8506 26.6551 42.7957 26.6551ZM47.2236 38.7453C46.0468 39.923 44.4744 40.5717 42.7957 40.5717C41.117 40.5717 39.5446 39.923 38.3678 38.7444C35.9262 36.3028 35.9262 32.3302 38.3678 29.8886C39.5446 28.7108 41.117 28.0622 42.7957 28.0622C44.4744 28.0622 46.0468 28.7108 47.2236 29.8886C47.2236 29.8886 47.2236 29.8886 47.2245 29.8895C48.4022 31.0663 49.0509 32.6387 49.0509 34.3174C49.05 35.9961 48.4014 37.5685 47.2236 38.7453Z" fill="black"/>
</svg>
