<svg width="100" height="100" viewBox="0 0 100 100" fill="none" xmlns="http://www.w3.org/2000/svg">
<path d="M100 44.4395H70.7586L96.083 29.8184L90.5216 20.183L65.1972 34.804L79.815 9.48157L70.1795 3.91685L55.5616 29.2393V0H44.4382V29.2421L29.8148 3.91685L20.1824 9.47878L34.803 34.8013L9.47851 20.183L3.91675 29.8156L29.2413 44.4367H0V55.5606H29.2385L3.91675 70.1816L9.47851 79.8171L34.8003 65.1987L20.1796 90.5211L29.8148 96.083L44.4355 70.758V100H55.559V70.7607L70.1768 96.083L79.8118 90.5211L65.1914 65.1961L90.5158 79.8171L96.0778 70.1816L70.7559 55.5632H99.9942V44.4395H100ZM50 65.1286C41.6126 65.1286 34.8142 58.3305 34.8142 49.9427C34.8142 41.555 41.6126 34.7565 50 34.7565C58.3874 34.7565 65.1856 41.555 65.1856 49.9427C65.1856 58.3305 58.3874 65.1286 50 65.1286Z" fill="#8E44EC"/>
</svg>
