<svg width="100" height="100" viewBox="0 0 100 100" fill="none" xmlns="http://www.w3.org/2000/svg">
<circle cx="50" cy="50.0001" r="50" fill="#8E44EC"/>
<path fill-rule="evenodd" clip-rule="evenodd" d="M48.3512 51.7013L48.3003 51.6481C48.1847 51.5341 48.0289 51.4704 47.8666 51.4707C47.7043 51.4709 47.5486 51.5352 47.4335 51.6495C47.3183 51.7639 47.2528 51.919 47.2513 52.0813C47.2498 52.2436 47.3124 52.3999 47.4255 52.5163L47.481 52.5696C47.538 52.6268 47.6057 52.6721 47.6803 52.7031C47.7548 52.7341 47.8347 52.75 47.9155 52.7501C47.9962 52.7502 48.0761 52.7344 48.1507 52.7036C48.2253 52.6728 48.2932 52.6276 48.3503 52.5706C48.4074 52.5135 48.4528 52.4458 48.4838 52.3713C48.5147 52.2967 48.5307 52.2168 48.5308 52.1361C48.5309 52.0554 48.5151 51.9754 48.4843 51.9008C48.4534 51.8262 48.4082 51.7584 48.3512 51.7013ZM54.1832 44.9436L49.8462 49.2787C49.7874 49.3358 49.7406 49.404 49.7084 49.4794C49.6763 49.5548 49.6594 49.6358 49.6589 49.7178C49.6583 49.7998 49.6741 49.881 49.7052 49.9568C49.7364 50.0326 49.7823 50.1015 49.8403 50.1594C49.8983 50.2173 49.9673 50.2631 50.0432 50.2941C50.119 50.3251 50.2003 50.3407 50.2823 50.34C50.3642 50.3393 50.4452 50.3223 50.5206 50.29C50.5959 50.2577 50.664 50.2107 50.7211 50.1518L55.0534 45.8162C55.1107 45.7591 55.1562 45.6912 55.1873 45.6165C55.2184 45.5417 55.2345 45.4616 55.2346 45.3807C55.2348 45.2997 55.219 45.2196 55.1881 45.1447C55.1573 45.0699 55.112 45.0019 55.0549 44.9445C54.9977 44.8872 54.9299 44.8417 54.8551 44.8106C54.7804 44.7795 54.7003 44.7634 54.6194 44.7633C54.5384 44.7631 54.4582 44.7789 54.3834 44.8098C54.3086 44.8406 54.2406 44.8865 54.1832 44.9436ZM63.5191 36.4774C64.0853 37.0438 64.4376 37.7891 64.5159 38.5862C64.5943 39.3832 64.3938 40.1828 63.9487 40.8487C63.5037 41.5145 62.8415 42.0055 62.0751 42.2379C61.3086 42.4702 60.4853 42.4297 59.7454 42.1231C59.0055 41.8165 58.3947 41.2629 58.0172 40.5566C57.6397 39.8502 57.5188 39.0348 57.6751 38.2493C57.8314 37.4638 58.2552 36.7567 58.8743 36.2486C59.4934 35.7406 60.2696 35.4629 61.0705 35.4628C61.5254 35.4618 61.976 35.5509 62.3963 35.725C62.8166 35.8992 63.1982 36.1549 63.5191 36.4774ZM61.0705 34.2279C59.984 34.2283 58.9312 34.6052 58.0915 35.2947C57.2518 35.9841 56.6771 36.9434 56.4653 38.009C56.2535 39.0746 56.4177 40.1808 56.9299 41.1389C57.4421 42.0971 58.2707 42.848 59.2745 43.2638C60.2783 43.6796 61.3952 43.7345 62.4349 43.4192C63.4746 43.1038 64.3729 42.4378 64.9766 41.5345C65.5804 40.6312 65.8522 39.5465 65.746 38.4653C65.6397 37.384 65.1619 36.373 64.3938 35.6045C63.9579 35.1673 63.4399 34.8207 62.8696 34.5844C62.2992 34.3482 61.6878 34.227 61.0705 34.2279ZM71.6051 41.5157C67.4161 51.5 59.3717 59.2498 47.4718 64.7653C47.1136 61.6423 45.7085 58.7326 43.4854 56.5101C41.2623 54.2877 38.3522 52.8835 35.2291 52.5262C38.77 44.8816 43.2274 38.8295 48.6014 34.37C51.5742 31.8982 54.8984 29.8826 58.4646 28.3895C62.1582 28.8398 65.2224 30.2789 67.4718 32.5264C69.7167 34.7695 71.1562 37.8267 71.6051 41.5157ZM60.6956 27.5308C63.7551 28.2413 66.3425 29.652 68.3466 31.6535C70.3416 33.652 71.7533 36.2334 72.4661 39.2892C73.9981 34.9263 74.8421 30.1633 74.9979 25C69.8278 25.1536 65.0603 25.997 60.6956 27.5308ZM46.2868 65.3028C46.0383 62.3111 44.7368 59.5045 42.6138 57.3821C40.4907 55.2597 37.6838 53.9591 34.692 53.7115C33.669 56.0304 32.7263 58.49 31.8639 61.0904L38.9081 68.1323C41.5094 67.2709 43.9695 66.3277 46.2868 65.3028ZM32.5168 63.4878C29.9711 64.6193 28.0826 66.1465 26.8514 68.0695C25.648 69.9512 25.0617 72.2297 25.0926 74.9048C27.7677 74.9375 30.0465 74.3512 31.929 73.1459C33.8498 71.9147 35.3772 70.0268 36.5112 67.482L32.5168 63.4878ZM41.5843 39.769H33.4194C29.512 43.1521 26.6011 47.5366 25 52.4507H33.9054C36.1086 47.6129 38.6682 43.3855 41.5843 39.769ZM47.5459 66.0937V75C52.4599 73.3988 56.8446 70.4882 60.2281 66.5813V58.4215C56.6132 61.3352 52.3858 63.8924 47.5459 66.0937Z" fill="white"/>
</svg>
