<svg width="100" height="100" viewBox="0 0 100 100" fill="none" xmlns="http://www.w3.org/2000/svg">
<circle cx="50" cy="50" r="50" fill="#8E44EC"/>
<path d="M72.9573 46.7309L28.9838 25.2804C28.6057 25.0959 28.1904 25 27.7696 25C26.24 25 25 26.24 25 27.7696V27.8495C25 28.2212 25.0456 28.5914 25.1357 28.952L29.3538 45.8243C29.469 46.2852 29.8587 46.6257 30.3308 46.6782L48.8707 48.7382C49.5136 48.8095 50 49.353 50 50C50 50.647 49.5136 51.1905 48.8707 51.2618L30.3308 53.3218C29.8587 53.3743 29.469 53.7148 29.3538 54.1757L25.1357 71.048C25.0456 71.4086 25 71.7789 25 72.1505V72.2305C25 73.76 26.24 75 27.7696 75C28.1904 75 28.6057 74.9041 28.9838 74.7195L72.9573 53.2691C74.207 52.6595 75 51.3907 75 50C75 48.6093 74.207 47.3405 72.9573 46.7309Z" fill="white"/>
</svg>
