<svg width="39" height="45" viewBox="0 0 39 45" fill="none" xmlns="http://www.w3.org/2000/svg">
<path d="M34.1583 8.5097C34.1276 8.28652 33.9327 8.16271 33.7708 8.14923C33.6103 8.13575 30.4642 8.08795 30.4642 8.08795C30.4642 8.08795 27.833 5.53281 27.573 5.27288C27.3132 5.01295 26.8055 5.09142 26.6081 5.15027C26.6057 5.1515 26.1141 5.30353 25.2865 5.55978C25.1479 5.11104 24.9443 4.5593 24.6538 4.00512C23.7171 2.21751 22.3451 1.27221 20.6874 1.26977C20.685 1.26977 20.6838 1.26977 20.6813 1.26977C20.5661 1.26977 20.452 1.2808 20.3368 1.2906C20.2878 1.23175 20.2387 1.17413 20.1872 1.11773C19.4651 0.345307 18.5394 -0.0310959 17.4298 0.00200793C15.2891 0.0633114 13.157 1.60938 11.4282 4.35578C10.2119 6.28806 9.28625 8.71571 9.02389 10.5953C6.5656 11.3566 4.84665 11.8887 4.80864 11.901C3.56786 12.2909 3.52863 12.3289 3.36679 13.4986C3.24663 14.3825 0 39.4876 0 39.4876L27.2077 44.1932L39 41.2617C39 41.2617 34.1889 8.73287 34.1583 8.5097ZM23.9243 5.98154C23.2978 6.17527 22.5854 6.39596 21.813 6.63504C21.7971 5.5512 21.6683 4.04313 21.1632 2.73982C22.7877 3.04756 23.5871 4.88544 23.9243 5.98154ZM20.3895 7.07642C18.9636 7.51778 17.4077 7.99964 15.847 8.48274C16.2859 6.80178 17.1184 5.1282 18.1409 4.03087C18.521 3.62259 19.0531 3.16772 19.6833 2.90779C20.2755 4.14367 20.4042 5.89327 20.3895 7.07642ZM17.4727 1.4267C17.9754 1.41566 18.3984 1.52601 18.7601 1.76387C18.1814 2.06426 17.6223 2.49583 17.0975 3.0586C15.7378 4.51762 14.6956 6.78217 14.28 8.96702C12.984 9.36793 11.7163 9.76155 10.5491 10.122C11.286 6.68286 14.1684 1.52233 17.4727 1.4267Z" fill="#95BF47"/>
<path d="M33.7663 8.15077C33.6057 8.13729 30.4596 8.08949 30.4596 8.08949C30.4596 8.08949 27.8285 5.53434 27.5685 5.27442C27.4717 5.17755 27.3405 5.12728 27.2031 5.10645L27.2044 44.1923L38.9955 41.262C38.9955 41.262 34.1844 8.73441 34.1538 8.51124C34.123 8.28806 33.9269 8.16425 33.7663 8.15077Z" fill="#5E8E3E"/>
<path d="M20.6742 14.2132L19.3047 19.3369C19.3047 19.3369 17.7771 18.6417 15.9662 18.7557C13.3104 18.9237 13.2822 20.5985 13.3093 21.0191C13.4539 23.3106 19.4825 23.8108 19.8209 29.1785C20.087 33.4011 17.5808 36.2897 13.9701 36.5178C9.63593 36.7912 7.25 34.2348 7.25 34.2348L8.16834 30.3286C8.16834 30.3286 10.5702 32.1407 12.4926 32.0193C13.7482 31.9397 14.1969 30.9183 14.1515 30.1962C13.9627 27.207 9.05353 27.3836 8.74337 22.4719C8.48219 18.3389 11.1968 14.1506 17.186 13.773C19.4935 13.6247 20.6742 14.2132 20.6742 14.2132Z" fill="white"/>
</svg>
