<svg width="42" height="42" viewBox="0 0 42 42" fill="none" xmlns="http://www.w3.org/2000/svg">
<path d="M15.1094 21.875C12.5211 21.875 10.4219 23.8441 10.4219 26.2718V37.2699C10.4219 39.6976 12.5211 41.6667 15.1094 41.6667C17.6976 41.6667 19.7969 39.6976 19.7969 37.2699V26.2718C19.795 23.8441 17.6957 21.875 15.1094 21.875Z" fill="#E91E63"/>
<path d="M0 26.5625C0 29.1505 2.09944 31.25 4.6875 31.25C7.27552 31.25 9.375 29.1505 9.375 26.5625V21.875H4.69122H4.6875C2.09944 21.875 0 23.9745 0 26.5625Z" fill="#E91E63"/>
<path d="M15.1168 0H15.1113C12.5222 0 10.4219 2.09944 10.4219 4.6875C10.4219 7.27552 12.5222 9.375 15.1113 9.375H19.7969V4.6875C19.7969 4.6875 19.7969 4.68193 19.7969 4.67821C19.795 2.09386 17.7003 0 15.1168 0Z" fill="#00BCD4"/>
<path d="M4.39408 19.792H15.3976C17.8236 19.792 19.7917 17.6925 19.7917 15.1045C19.7917 12.5165 17.8236 10.417 15.3976 10.417H4.39408C1.96802 10.417 0 12.5165 0 15.1045C0 17.6925 1.96802 19.792 4.39408 19.792Z" fill="#00BCD4"/>
<path d="M36.977 10.417C34.3916 10.417 32.2969 12.5108 32.2969 15.0952V15.1045V19.792H36.9825C39.5716 19.792 41.6719 17.6925 41.6719 15.1045C41.6719 12.5165 39.5716 10.417 36.9825 10.417H36.977Z" fill="#4CAF50"/>
<path d="M21.875 4.38945V15.4022C21.875 17.8259 23.9743 19.7917 26.5625 19.7917C29.1507 19.7917 31.25 17.8259 31.25 15.4022V4.38945C31.25 1.96576 29.1507 0 26.5625 0C23.9743 0 21.875 1.96576 21.875 4.38945Z" fill="#4CAF50"/>
<path d="M30.6977 37.2825C30.6977 34.8661 28.7379 32.9062 26.3215 32.9062H21.9453V37.2859C21.947 39.7006 23.9051 41.6588 26.3215 41.6588C28.7379 41.6588 30.6977 39.6989 30.6977 37.2825Z" fill="#FF9800"/>
<path d="M37.2925 21.96H26.325C23.9069 21.96 21.9453 23.9215 21.9453 26.3396C21.9453 28.7578 23.9069 30.7193 26.325 30.7193H37.2925C39.7106 30.7193 41.6722 28.7578 41.6722 26.3396C41.6722 23.9215 39.7106 21.96 37.2925 21.96Z" fill="#FF9800"/>
</svg>
