<svg width="38" height="38" viewBox="0 0 38 38" fill="none" xmlns="http://www.w3.org/2000/svg">
<g clip-path="url(#clip0_12_536)">
<path d="M32.3 0H5.7C2.55198 0 0 2.55198 0 5.7V32.3C0 35.448 2.55198 38 5.7 38H32.3C35.448 38 38 35.448 38 32.3V5.7C38 2.55198 35.448 0 32.3 0Z" fill="#0079BF"/>
<path d="M29.168 7.05078H22.7852C21.8424 7.05078 21.0781 7.81505 21.0781 8.75781V19.2969C21.0781 20.2396 21.8424 21.0039 22.7852 21.0039H29.168C30.1107 21.0039 30.875 20.2396 30.875 19.2969V8.75781C30.875 7.81505 30.1107 7.05078 29.168 7.05078Z" fill="white"/>
<path d="M15.293 7.05078H8.91016C7.96739 7.05078 7.20312 7.81505 7.20312 8.75781V27.3125C7.20312 28.2553 7.96739 29.0195 8.91016 29.0195H15.293C16.2357 29.0195 17 28.2553 17 27.3125V8.75781C17 7.81505 16.2357 7.05078 15.293 7.05078Z" fill="white"/>
</g>
<defs>
<clipPath id="clip0_12_536">
<rect width="38" height="38" fill="white"/>
</clipPath>
</defs>
</svg>
